<?xml version="1.0" encoding="UTF-8"?>
<!-- Created with Inkscape (http://www.inkscape.org/) -->
<svg width="3297.5" height="910" version="1.1" viewBox="0 0 3297.5 910" xmlns="http://www.w3.org/2000/svg">
 <g transform="translate(-3255.2 -1986)">
  <g fill="#51534a">
   <path d="m5692.8 2566 30 120s30 20 110 20c120.01 0 260-55.063 260-270 0-210-150-265-270-265-98.274 0-160 65-160 65v-70s-10 20-40 20h-180s40 20 40 60v570c0 60-40 70-40 70h270s-50-13.787-50-70v-440s10-80 110-80c102.49 0 150 50 150 130 0 60-30 180-140 170-84.419-7.674-90-30-90-30z"/>
   <path d="m6092.8 2536 40 140s60 40 180 40 240-30 240-170c0-200-310-149.39-310-230 0-30 39.995-42.495 90-42.495 60 0 130 32.746 170 72.495v-140s-55.353-30-160-30-230 30-230 170c0 212.53 305 150 305 230 0 30-34.995 45-75 45-92.445 0-190-45-250-85z"/>
   <path d="m4512.8 2166c-22.785 19.43-40 20-40 20h-190s55 15.967 55 60v370c0 60.107-55 75-55 75h280s-50-15-50-75v-245s0.258-75 70-75c70 0 70 75 70 75v245c0 60-60 75-60 75h280s-50-35-50-75v-245s0.258-75 70-75c70 0 70 75 70 75v245c0 60-60 75-60 75h280s-50-35-50-75v-270c0-150-110-170-180-170-60.625 0-112.64 26.039-155.57 67.402-36.718-57.514-105.38-67.402-154.43-67.402-70 0-130 60-130 60z"/>
   <path d="m5410.2 2166c-22.785 19.43-40 20-40 20h-190s55 15.967 55 60v370c0 60.107-55 75-55 75h280s-50-15-50-75z"/>
   <path d="m5262.8 2011c-22.091 0-40 17.909-40 40v45c0 22.091 17.909 40 40 40h107.5s17.215 0.57 40 20v-105c0-22.091-17.909-40-40-40z"/>
  </g>
  <path d="m3710.2 1986a455 455 0 0 0-455 455 455 455 0 0 0 3.496 49.004l304-304v190l-262.01 262.01a455 455 0 0 0 22.95 42.05l494.06-494.06v190l-407.17 407.17a455 455 0 0 0 36.934 28.066l625.23-625.23v190l-498.61 498.61a455 455 0 0 0 136.11 21.387 455 455 0 0 0 455-455 455 455 0 0 0-455-455z" fill="#00239c" stop-color="#000000" stroke-linecap="round" stroke-linejoin="round" stroke-width="40.444" style="paint-order:fill markers stroke"/>
 </g>
</svg>
